<svg width="64" height="64" viewBox="0 0 64 64" fill="none" xmlns="http://www.w3.org/2000/svg">
  <!-- Background circle -->
  <circle cx="32" cy="32" r="32" fill="#3B82F6"/>
  
  <!-- Chat bubble icon -->
  <path d="M18 22C18 19.7909 19.7909 18 22 18H30L34 14H38C40.2091 14 42 15.7909 42 18V26C42 28.2091 40.2091 30 38 30H34L30 34L26 30H22C19.7909 30 18 28.2091 18 26V22Z" fill="white"/>
  
  <!-- Message lines -->
  <rect x="24" y="20" width="14" height="2" rx="1" fill="#3B82F6"/>
  <rect x="24" y="24" width="10" height="2" rx="1" fill="#3B82F6"/>
  
  <!-- Smile -->
  <path d="M26 26C26 26 28 28 30 28C32 28 34 26 34 26" stroke="white" stroke-width="1.5" stroke-linecap="round"/>
</svg>
